<svg width="16" height="16" viewBox="0 0 16 16" fill="none" xmlns="http://www.w3.org/2000/svg">
<g id="Twitter">
<g id="Vector">
<path id="Vector_2" d="M13.3116 5.53835V5.91259C13.3116 9.68114 10.5585 13.9998 5.52064 13.9998C4.03341 14.0032 2.57777 13.5543 1.33325 12.7087C1.54939 12.7392 1.76741 12.7529 1.9855 12.7499C3.2183 12.7534 4.41643 12.3263 5.38731 11.5374C4.81458 11.5286 4.25908 11.3326 3.79976 10.9772C3.34044 10.6218 3.00067 10.1251 2.82875 9.55764C2.99935 9.5952 3.17328 9.61402 3.34767 9.61378C3.59118 9.61384 3.8336 9.57985 4.06839 9.51274C3.44806 9.38431 2.88998 9.03601 2.48965 8.52742C2.08932 8.01883 1.87161 7.38157 1.87379 6.72468V6.68726C2.25332 6.90743 2.67883 7.02818 3.11343 7.03904C2.53491 6.64368 2.12359 6.03383 1.96351 5.3341C1.80344 4.63436 1.90669 3.89756 2.25217 3.27423C2.94055 4.15349 3.79941 4.87246 4.77291 5.3844C5.74641 5.89634 6.81275 6.18979 7.90262 6.24566C7.84867 6.03325 7.82321 5.81413 7.82695 5.59449C7.80665 5.01402 7.95913 4.44115 8.2636 3.9539C8.56807 3.46665 9.00975 3.08869 9.52849 2.87148C10.0472 2.65428 10.6178 2.60839 11.1626 2.74005C11.7074 2.87172 12.1998 3.17454 12.5729 3.6073C13.1861 3.47877 13.7744 3.24478 14.3134 2.91496C14.109 3.58536 13.6742 4.15417 13.0918 4.51295C13.6358 4.4351 14.1662 4.27629 14.6666 4.04141C14.3039 4.61985 13.8451 5.12671 13.3116 5.53835Z" fill="#110A1D"/>
</g>
</g>
</svg>
